<?xml version="1.0" encoding="utf-8"?>
<!-- Generator: Adobe Illustrator 19.2.1, SVG Export Plug-In . SVG Version: 6.00 Build 0)  -->
<svg version="1.1" id="layer" xmlns="http://www.w3.org/2000/svg" xmlns:xlink="http://www.w3.org/1999/xlink" x="0px" y="0px"
	 viewBox="0 0 652 652" style="enable-background:new 0 0 652 652;" xml:space="preserve">
<style type="text/css">
	.st0{fill:#FF5A00;}
	.st1{fill:#FFFEFE;}
</style>
<g>
	<path class="st0" d="M20.4,261.2h120.3v121.2H20.4L20.4,261.2z"/>
	<path d="M357.3,285.2c1.1,0.1,1.3,1.4,1.4,2.2c0.3,4.1,0.4,8.1,0.4,12.2c0.2,3.9,0.2,7.7,0.2,11.6c2.2-1.7,4.3-3.5,6.9-4.5
		c4.1-1.8,9.1-1.8,13.1,0.3c4.3,2.2,7.3,6.4,8.8,10.9c1.4,4.3,1.8,8.9,1.5,13.4c-0.4,5.3-1.8,10.6-4.9,14.9
		c-1.8,2.5-4.2,4.7-7.2,5.8c-4.8,1.7-10.1,1.1-14.4-1.6c-1.3-0.8-2.5-2-3.7-3c-0.5,1.6-0.9,3.1-1.4,4.7c-2.3,0-4.5,0.2-6.8-0.2
		c0.9-3.6,0.9-7.4,1-11.1c0.2-13.1,0-26.2-0.1-39.2c-0.3-5.1,0.1-10.2-0.8-15.2C353.4,285.8,355.3,285.2,357.3,285.2z M374.1,312.2
		c-2-0.4-4-0.4-6-0.2c-3.6,0.5-6.5,3-8.8,5.6c-0.1,0.9,0,1.7-0.1,2.6V341c-0.1,0.7,0.5,1.2,1,1.6c3.5,3.4,8.7,5,13.5,3.8
		c2.3-0.6,4.3-2.1,5.4-4.2c1.7-2.9,2.3-6.3,2.6-9.6c0.2-2.5,0.5-5.1,0.2-7.6c-0.1-2.9-0.7-6-2.2-8.5
		C378.5,314.4,376.5,312.7,374.1,312.2z M403.9,287c1.4-0.5,3-0.4,4.4,0.2c1.3,0.8,2.2,2,2.8,3.4c0.9,3-1.5,6.4-4.6,6.8
		c-2.4,0.3-5-1.1-5.7-3.5C399.8,291.3,401.3,288.1,403.9,287L403.9,287z M190.6,292.5c3.4-2.3,7.4-4.1,11.6-4.1
		c4.3-0.1,8.7,0.2,12.6,2.1c1.6,0.7,3.2,1.5,4.6,2.7c-1,1.7-2.3,3.2-3.5,4.7c-1.6-0.9-3.1-1.9-4.8-2.5c-4.2-1.5-9-1.8-13.2-0.1
		c-3.5,1.4-6.4,4.1-8.2,7.4c-1.2,2.3-2.3,4.8-2.8,7.4c-0.4,2.5-0.6,5.1-0.7,7.7c-0.1,3.4-0.3,6.9-0.1,10.3c0.6,4.8,2.2,9.6,5.5,13.2
		c2.8,3.3,7,5.2,11.3,5.6c2.2,0.1,4.5,0.1,6.7-0.4c2.7-0.6,5-2,7.5-3.1c1.4,1.4,2.7,3,3.9,4.7c-1.8,1-3.7,2-5.7,2.8
		c-5.2,2.1-11.1,2.2-16.6,1.6c-4-0.8-7.7-2.9-10.8-5.5c-3.6-3.1-6.2-7.2-7.7-11.7c-1.1-3-1.6-6.2-1.9-9.3c-0.1-2.4-0.4-4.7-0.1-7.1
		c0.1-4.5,0.8-8.9,2.6-13.1C182.8,300.6,186,295.7,190.6,292.5z"/>
	<path class="st1" d="M56.1,291.4c0.5-0.1,1.1-0.3,1.6-0.3c2.6-0.1,5.2,0.1,7.8,0.2c0.4-0.1,0.6,0.3,0.7,0.6
		c3.9,8.1,7.8,16.3,11.8,24.4c0.9,1.7,1.6,3.4,2.6,5c0.8-1.3,1.5-2.7,2.2-4.1c4.5-8.7,8.7-17.4,13.1-26.1c2.9,0.1,5.8-0.2,8.7,0.3
		c-0.5,1.7-1.5,3.1-2.2,4.7c-5.8,11.1-11.7,22.2-17.5,33.3c-0.2,0.4-0.3,0.9-0.3,1.4c0,7.9,0,15.9,0,23.8c-2.8,0-5.6,0-8.4,0
		c0-7.7,0-15.5,0-23.2c0-0.8,0.1-1.7-0.4-2.5c-5.4-10.1-10.7-20.2-16.1-30.4C58.5,296.1,57.2,293.8,56.1,291.4z"/>
	<path d="M521.3,294.9c2.3-0.7,4.7-1.3,7.1-1.7c-0.4,4.4-0.7,8.8-0.8,13.3c3.7,0.1,7.5,0.1,11.2,0.2c-0.6,1.7-1.3,3.4-2.1,5
		c-3.2,0-6.3,0-9.5,0c0,4.1,0,8.2,0,12.3c0,3.2,0.2,6.5,0.1,9.7c0.1,3.7-0.1,7.4,0.3,11c0.1,1.5,1.5,2.6,2.8,3
		c2.3,0.5,4.7,0.3,6.9-0.2c0.6,1.3,0.9,2.8,0.8,4.2c-2,1.1-4.4,1.3-6.7,1.5c-3.2,0.1-6.8-0.4-9.1-2.9c-1.9-1.8-1.7-4.6-2-7
		c-0.2-5.2-0.1-10.5-0.2-15.7c0-5.3,0-10.7,0-16c-2,0-4,0-6,0c-0.1-1.7-0.1-3.5,0-5.2c2,0,3.9,0,5.9,0
		C520.7,302.6,520.7,298.7,521.3,294.9z M247.9,305.4c1.9,0.1,3.8,0,5.6,0.6c4.2,1.4,7.7,4.3,9.9,8.1c1.9,3.3,3.2,7,3.3,10.8
		c0.2,5.1,0.4,10.4-1.2,15.3c-1.5,4.6-4.7,8.7-9.1,11c-4.3,2.2-9.5,2.7-14.1,1.4c-4.2-1.1-7.8-3.9-10.2-7.5
		c-2.7-3.9-3.6-8.6-3.7-13.3c-0.1-4.5-0.2-9.1,1.3-13.4c1.4-4.2,4.1-8.1,7.9-10.5c1.7-1.1,3.6-2,5.6-2.4
		C244.8,305.3,246.4,305.4,247.9,305.4L247.9,305.4z M244.3,311.2c-2.4,0.6-4.7,2-6,4.1c-1.9,3.1-2.2,6.8-2.4,10.3
		c-0.2,2.6,0,5.2,0.2,7.8c0.4,3.1,1,6.4,2.5,9.2c1.6,3,5,4.5,8.3,4.7c3.1,0.2,6.5-0.6,8.7-3c1.8-2,2.8-4.5,3.2-7.2
		c0.5-3.3,0.4-6.6,0.3-9.9c-0.1-3.4-0.4-7-1.8-10.2c-0.8-2-2.3-3.7-4.2-4.7C250.5,310.7,247.2,310.5,244.3,311.2z M279.2,306.9
		c2.1-0.7,4.2-1.2,6.4-1.6c0.9,2,1.4,4.2,1.6,6.4c1.5-0.8,2.6-2,4-2.9c3.1-2.3,6.9-3.7,10.8-3.5c0.9,0.1,1.7,0.3,2.5,0.7
		c1.3,0.7,2.7,1.4,3.8,2.4c1.1,1.1,1.9,2.5,2.7,3.9c1.8-0.8,3.1-2.2,4.7-3.3c2.7-1.9,5.8-3.4,9.2-3.7c3.1-0.3,6.2,0.7,8.5,2.8
		c1,1,2.1,2,2.6,3.3c0.5,1.3,0.7,2.7,0.8,4.1c0.5,7.3,0.2,14.7,0.5,22c0,4.9,0,9.7,0,14.6c-2.4,0-4.8,0.1-7.3,0c0-7.3,0-14.6,0-21.9
		c0-4.7,0.1-9.4-0.3-14.1c-0.2-1.5-1-2.9-2.2-3.8c-1.4-0.9-3.2-0.8-4.8-0.7c-2.9,0.3-5.2,2.1-7.4,3.8c-1,0.9-2.1,1.7-3.1,2.6
		c-0.3,0.2-0.2,0.7-0.2,1c0,11,0,22,0,33c-2.4,0-4.8,0-7.2,0v-25.7c0-2.1,0-4.2-0.1-6.2c-0.1-2.1,0.1-4.4-0.9-6.3
		c-1.5-2.1-4.4-2.5-6.7-1.9c-3.6,0.9-6.8,3.1-9.5,5.6c-0.4,0.3-0.4,0.8-0.4,1.3c0,11.1,0,22.2,0,33.3c-2.1,0.1-4.2,0.1-6.3,0
		c-0.2-11.3-0.1-22.7-0.4-34.1c-0.1-2.6-0.1-5.2-0.4-7.7C279.8,309.1,279.4,308,279.2,306.9L279.2,306.9z M402.2,306.5
		c2.3-0.3,4.6-0.7,6.9-1.2c0.3,6.4,0.2,12.8,0.2,19.2c0,9.2,0,18.4,0,27.6c-2.4,0.1-4.8,0.1-7.2,0c-0.1-13.2,0-26.3,0-39.5
		C402.2,310.6,402.1,308.5,402.2,306.5z M494.9,305.6c4.9,0.9,9.1,5.4,9.2,10.5c0.3,7.6-0.1,15.2,0,22.8l0,2.3c0,1.5,0.1,3,0.5,4.5
		c0.3,1.5,1.7,2.3,2.8,3.2c-1,1.4-1.9,3-3.2,4.2c-0.8,0.7-1.8-0.1-2.4-0.5c-1.7-1.3-2.9-3.2-3.9-5.1c-1.6,0.9-2.7,2.2-4.3,3.1
		c-2.6,1.7-5.7,2.7-8.9,2.6c-2.8,0.1-5.7-0.4-8.2-1.7c-4.1-2.2-6.4-7-6.3-11.5c0-4.4,2.2-8.7,5.7-11.3c4.2-3.2,9.6-4.2,14.7-4.6
		c2.3-0.2,4.7-0.2,7.1-0.3c0.1-2.3-0.1-4.6-0.4-6.9c-0.3-1.9-1.2-3.9-3-4.9c-2.1-1.1-4.6-1.2-7-0.8c-4.4,0.5-8.5,2.4-12.1,5
		c-1-1.4-2-2.7-2.8-4.2c-0.4-0.7,0.2-1.3,0.8-1.6c4.8-2.7,10.1-5,15.7-4.9h2.4C492.5,305.4,493.7,305.4,494.9,305.6L494.9,305.6z
		 M491.9,328.5c-2.2,0.2-4.5,0.3-6.6,0.9c-2.6,0.7-5,2.4-6.4,4.7c-0.8,1.3-0.8,2.9-0.9,4.4c0,1.6-0.2,3.4,0.4,4.9
		c0.6,1.6,1.7,3.1,3.3,3.7c1.8,0.8,3.9,0.9,5.9,0.7c2.4-0.3,4.5-1.6,6.3-3c1.5-1.3,3-2.9,3.1-5c0.3-3.7,0.2-7.4,0.3-11.1
		C495.5,328.7,493.7,328.3,491.9,328.5z M570.3,305.7c4.1,1,7.8,3.5,10.2,6.9c2,2.8,3.3,6,3.9,9.4c0.5,3.2,0.7,6.5,0.5,9.7
		c-0.1,5.3-1.7,10.6-4.9,14.8c-2.6,3.4-6.6,5.4-10.7,6.2c-5,0.9-10.4,0-14.6-3c-3.7-2.6-6-6.8-7.3-11c-0.7-2.2-0.8-4.4-1-6.7
		c-0.1-3.8-0.1-7.6,0.6-11.3c1-4.2,3.1-8.3,6.3-11.3c2.4-2.2,5.4-3.6,8.6-4C564.7,305.1,567.5,305.2,570.3,305.7z M562.4,311.1
		c-3.4,0.4-6.1,3.1-7.2,6.2c-1.4,3.3-1.2,6.9-1.3,10.4c0.1,3.3,0.1,6.6,0.7,9.9c0.4,2.2,1.1,4.4,2.6,6.1c1.4,1.7,3.5,2.8,5.6,3.2
		c0.8,0.2,1.7,0.3,2.5,0.3l0.8,0l0.8-0.1c1.7-0.2,3.3-0.7,4.8-1.5c1.8-1,3.1-2.9,3.8-4.8c0.9-2.3,1-4.8,1.2-7.2
		c0.1-2.9,0.2-5.8,0-8.7c-0.2-3-0.6-6.1-2-8.8c-1.3-2-3.1-3.7-5.3-4.7C567.3,310.8,564.8,310.8,562.4,311.1z M597.2,307
		c2.2-0.6,4.3-1.3,6.5-1.8c1.2,2.2,1.4,4.8,1.5,7.2c1.1-0.8,2-1.9,3-2.9c3.1-3.1,7.7-5,12.1-4.2v0.6c-1,2.1-1.6,4.4-2.5,6.6
		c-0.1,0.4-0.7,0.3-1,0.3c-1.9,0-4,0-5.7,1c-1.7,1-3.2,2.3-4.4,3.9c-1.2,1.5-1,3.6-1,5.4c-0.1,2.6-0.2,5.2-0.1,7.8
		c0,7,0,14.1,0,21.1c-2.4,0.1-4.8,0.1-7.2,0c0-7.8,0-15.7,0-23.5c0-5.3,0-10.7-0.2-16C598,310.7,597.4,308.9,597.2,307z
		 M423.5,307.1c2.1-0.7,4.3-1.5,6.5-1.5c0.8,2.1,1.3,4.3,1.6,6.5c1.9-1.2,3.5-2.8,5.5-3.9c3.8-2.2,8.4-3.8,12.7-2.2
		c2.5,0.9,5,2.3,6.5,4.6c1.2,1.6,1.5,3.8,1.7,5.8c0.4,7.1,0.3,14.2,0.3,21.4c0,4.8,0.1,9.5,0.1,14.3c-2.4,0.1-4.8,0.1-7.2,0
		c0-7.8-0.2-15.7-0.2-23.5c-0.1-4.4,0.1-8.7-0.4-13.1c-0.7-2.1-2.7-3.8-4.9-3.9c-1.6-0.1-3.3-0.1-4.9,0.5c-3.4,1.3-6.5,3.4-9.3,5.7
		c-0.1,11.4,0,22.9,0,34.3c-2.1,0-4.2,0.1-6.3,0c0-6.5-0.2-13-0.2-19.5c-0.1-6.7,0-13.3-0.4-20C424.5,310.7,423.9,308.9,423.5,307.1
		L423.5,307.1z"/>
</g>
</svg>
